<svg width="120" height="120" viewBox="0 0 120 120" xmlns="http://www.w3.org/2000/svg">
  <defs>
    <linearGradient id="gradient1" x1="0%" y1="0%" x2="100%" y2="100%">
      <stop offset="0%" stopColor="#000000" />
      <stop offset="50%" stopColor="#0044ff" />
      <stop offset="100%" stopColor="#00aaff" />
    </linearGradient>
    <linearGradient id="gradient2" x1="100%" y1="0%" x2="0%" y2="100%">
      <stop offset="0%" stopColor="#00aaff" />
      <stop offset="50%" stopColor="#0044ff" />
      <stop offset="100%" stopColor="#000000" />
    </linearGradient>
    <linearGradient id="gradient3" x1="0%" y1="100%" x2="100%" y2="0%">
      <stop offset="0%" stopColor="#000000" />
      <stop offset="50%" stopColor="#0088ff" />
      <stop offset="100%" stopColor="#000000" />
    </linearGradient>
    <filter id="glow">
      <feGaussianBlur stdDeviation="2" result="coloredBlur" />
      <feMerge>
        <feMergeNode in="coloredBlur" />
        <feMergeNode in="SourceGraphic" />
      </feMerge>
    </filter>
  </defs>
  <g filter="url(#glow)">
    <path d="M 35 35 L 25 10 L 50 35 Z" fill="none" stroke="url(#gradient1)" stroke-width="2" />
    <path d="M 85 35 L 95 10 L 70 35 Z" fill="none" stroke="url(#gradient1)" stroke-width="2" />
    <path d="M 30 40 L 15 60 L 25 85 L 45 95 L 60 100 L 75 95 L 95 85 L 105 60 L 90 40 L 60 25 Z" fill="none" stroke="url(#gradient3)" stroke-width="2.5" stroke-linecap="round" stroke-linejoin="round" />
    <path d="M 38 52 Q 44 48 50 52" fill="none" stroke="url(#gradient2)" stroke-width="2" stroke-linecap="round" />
    <path d="M 70 52 Q 76 48 82 52" fill="none" stroke="url(#gradient2)" stroke-width="2" stroke-linecap="round" />
    <circle cx="60" cy="70" r="4" fill="#000000" />
    <path d="M 50 85 L 70 85" fill="none" stroke="url(#gradient3)" stroke-width="2" stroke-linecap="round" />
  </g>
</svg>
